<svg width="1044" height="554" viewBox="0 0 1044 554" fill="none" xmlns="http://www.w3.org/2000/svg">
<path fill-rule="evenodd" clip-rule="evenodd" d="M251.289 117.179L255.167 112.47C229.958 93.0784 228.85 60.3901 256.275 34.0733C272.619 18.2832 299.213 18.2832 314.449 34.3503L234.667 166.211C221.925 173.137 208.905 185.603 195.331 205.548L197.547 208.318C223.31 180.616 251.566 186.157 280.653 206.933L326.915 168.428V168.982C326.915 191.974 341.043 206.933 356.002 206.933L392.568 177.569L390.352 174.799C375.67 182.555 360.434 168.982 360.434 147.374V47.6473C360.434 31.0261 360.434 13.5739 377.332 3.32423L375.393 0C372.736 1.85173 370.079 3.68005 367.457 5.48498L367.456 5.48551C361.054 9.89081 354.855 14.1567 349.353 18.2832C329.131 -6.92547 290.902 -6.64845 252.397 29.641C220.54 59.8361 223.864 95.2945 251.289 117.179ZM244.64 161.779L262.646 132.138H326.915V160.117L307.801 175.63C287.855 162.887 266.802 154.3 244.64 161.779ZM278.436 105.821L318.604 39.3367C323.591 46.5392 326.915 56.5119 326.915 68.7007V105.821H278.436ZM72.856 206.933H110.808L146.82 92.5243H149.036V206.933H183.664V3.87826H145.712L94.4635 153.746H90.5852L37.9516 3.87826H0V206.933H34.6274V92.5243H36.8435L72.856 206.933ZM545.375 206.933H510.747V117.733H441.769V206.933H407.142V3.87826H441.769V87.261H510.747V3.87826H545.375V206.933ZM559.808 206.933H597.482L610.225 147.651H657.318L670.061 206.933H707.736L655.102 3.87826H612.441L559.808 206.933ZM616.874 117.179L632.941 42.1069H634.603L650.67 117.179H616.874ZM829.241 206.933H723.143V3.87826H757.77V176.461H829.241V206.933ZM846.477 206.933H881.104V3.87826H846.477V206.933ZM933.746 206.933H896.072L948.705 3.87826H991.366L1044 206.933H1006.33L993.583 147.651H946.489L933.746 206.933ZM969.205 42.1069L953.138 117.179H986.934L970.867 42.1069H969.205ZM689.685 435.45C689.685 494.152 650.551 527.148 598.371 527.148C545.425 527.148 505.907 494.152 505.907 435.45V326.104C505.907 266.635 545.425 234.023 598.371 234.023C650.551 234.023 689.685 266.635 689.685 326.104V435.45ZM554.249 329.941V431.614C554.249 460.389 566.143 482.642 598.371 482.642C628.298 482.642 640.959 460.389 640.959 431.614V329.941C640.959 302.7 628.298 278.529 598.371 278.529C566.143 278.529 554.249 302.7 554.249 329.941ZM51.7956 521.393H0.383671L74.4323 380.969L0 240.162H52.1793L98.9872 334.545H102.057L148.481 240.162H199.893L126.228 380.585L200.276 521.393H148.097L102.057 427.01H98.9872L51.7956 521.393ZM273.66 521.393H225.701V240.162H273.66V521.393ZM294.39 521.393H346.569L364.218 439.287H429.442L447.091 521.393H499.27L426.373 240.162H367.287L294.39 521.393ZM373.426 397.083L395.679 293.108H397.981L420.234 397.083H373.426ZM840.018 527.531C841.108 526.937 842.191 526.35 843.266 525.766L843.268 525.765L843.271 525.763C850.529 521.824 857.458 518.062 863.806 513.719C866.875 528.682 884.908 553.237 903.324 553.237C904.092 552.086 940.157 522.16 940.157 522.16L938.238 518.323C925.194 527.531 898.337 513.719 885.675 499.523C950.9 451.948 974.304 397.467 973.152 350.275C970.85 278.145 910.614 223.664 853.831 240.162L790.909 300.782L791.292 366.389C791.676 399.002 787.839 407.826 772.109 418.569C744.868 361.018 750.623 282.365 810.859 240.162L808.941 236.709C719.162 283.133 692.689 383.655 722.999 453.483C741.415 496.07 780.933 527.148 840.018 527.531ZM775.562 424.708C805.488 406.675 838.484 380.585 837.716 352.577V273.925C843.088 273.925 848.459 274.308 853.447 275.076V486.479C822.753 481.107 797.047 460.389 780.166 432.765L775.562 424.708ZM861.504 487.63V416.65C880.688 403.222 901.022 403.222 920.206 413.965C913.3 446.193 896.418 475.352 870.329 488.013C867.259 488.013 864.573 488.013 861.504 487.63ZM861.504 407.059V359.867C881.839 371.761 901.406 372.145 922.124 360.634L922.892 370.226C923.659 381.353 923.275 392.863 921.74 403.989C901.79 393.63 881.455 394.781 861.504 407.059ZM861.504 350.275V276.994C894.5 286.202 914.067 316.896 920.589 352.194C900.639 364.087 881.455 363.32 861.504 350.275ZM1044 521.393H996.041V240.162H1044V521.393Z" fill="white"/>
</svg>
