<svg width="201" height="40" viewBox="0 0 201 40" fill="none" xmlns="http://www.w3.org/2000/svg">
<path d="M13.9894 39.734H21.2767L28.1916 17.766H28.6171V39.734H35.266V0.744681H27.9788L18.1383 29.5213H17.3937L7.28725 0.744681H0V39.734H6.64895V17.766H7.07449L13.9894 39.734Z" fill="white"/>
<path d="M48.251 22.5L48.9957 21.5957C44.1553 17.8723 43.9425 11.5957 49.2085 6.54255C52.3468 3.51064 57.4532 3.51064 60.3787 6.59574L45.0595 31.9149C42.6127 33.2447 40.1127 35.6383 37.5063 39.4681L37.9319 40C42.8787 34.6809 48.3042 35.7447 53.8894 39.734L62.7724 32.3404V32.4468C62.7724 36.8617 65.4851 39.734 68.3575 39.734L75.3788 34.0957L74.9532 33.5638C72.1341 35.0532 69.2085 32.4468 69.2085 28.2979V9.14893C69.2085 5.95745 69.2085 2.60638 72.4532 0.638299L72.0809 0C70.3256 1.2234 68.5702 2.39362 67.0809 3.51064C63.1979 -1.32979 55.8574 -1.2766 48.4638 5.69149C42.3468 11.4894 42.9851 18.2979 48.251 22.5ZM46.9744 31.0638L50.4319 25.3723H62.7724V30.7447L59.1021 33.7234C55.2723 31.2766 51.2298 29.6277 46.9744 31.0638ZM53.4638 20.3191L61.1766 7.55319C62.1341 8.93617 62.7724 10.8511 62.7724 13.1915V20.3191H53.4638Z" fill="white"/>
<path d="M98.0708 39.734H104.72V0.744681H98.0708V16.7553H84.8261V0.744681H78.1772V39.734H84.8261V22.6064H98.0708V39.734Z" fill="white"/>
<path d="M107.491 39.734H114.725L117.172 28.3511H126.215L128.661 39.734H135.895L125.789 0.744681H117.598L107.491 39.734ZM118.449 22.5L121.534 8.08511H121.853L124.938 22.5H118.449Z" fill="white"/>
<path d="M138.854 39.734H159.226V33.883H145.503V0.744681H138.854V39.734Z" fill="white"/>
<path d="M162.536 39.734H169.185V0.744681H162.536V39.734Z" fill="white"/>
<path d="M172.059 39.734H179.293L181.74 28.3511H190.782L193.229 39.734H200.463L190.357 0.744681H182.165L172.059 39.734ZM183.016 22.5L186.101 8.08511H186.42L189.506 22.5H183.016Z" fill="white"/>
</svg>
